<svg xmlns="http://www.w3.org/2000/svg" viewBox="0 0 103.62 103.7"><defs><style>.cls-1{fill:none;stroke-width:10px;}.cls-1,.cls-2{stroke:#fff;stroke-miterlimit:10;}.cls-2{fill:#fff;}</style></defs><title>Asset 1</title><g id="Layer_2" data-name="Layer 2"><g id="OBJECTS"><circle class="cls-1" cx="51.81" cy="51.81" r="46.81"/><path class="cls-2" d="M83.36,38.12l-1.19.48a3.33,3.33,0,0,1-3.92-1.08l-9.6-12.7A4.62,4.62,0,0,0,64.55,23a4.54,4.54,0,0,1-1.8-.19,4.61,4.61,0,0,1-2.17-1.42l-7.47-8.88,3.44,10.83s-5,12.78-9,14.8c0,0,1.51,1.33,4.55-.15l-3.21,2.69A8.9,8.9,0,0,0,56.29,40l-2.14,2.37a42.7,42.7,0,0,1,5.7-1.94c3-.77,11.24-1.08,12.16,8.84l4.8-.07a4.28,4.28,0,0,1,1.07.12l-1.82-2.45a1.22,1.22,0,0,0-.62-.45l-1.56-.54a1.52,1.52,0,0,1-1.09-1.3v-.34a1.3,1.3,0,0,0-.32-.79,9.35,9.35,0,0,0-3.78-2.82,9,9,0,0,1,4.67,2.7,1.49,1.49,0,0,1,.31.66l.15.75a.67.67,0,0,0,.44.44l1.85.6a2,2,0,0,1,.94.63,15,15,0,0,1,2.23,3.53,3.93,3.93,0,0,1,.55.44l.93.91S84.09,41.74,83.36,38.12ZM70.19,33.9a10.73,10.73,0,0,0-3.59-7.14l5.76,5.44Z"/><path class="cls-2" d="M48.7,61c-4.85-2.86-8.91-6.26-8.3-12.81a12.2,12.2,0,0,1,15.52-10.6L60.38,23.1a27.37,27.37,0,0,0-34,18.18c-2.21,7.21,2,18.87,4.84,25.86,6,14.87-14.72,17.21-10.56,19.6s21,8.74,24.93,11.47C53,103.36,63.59,93,63.43,102A26.84,26.84,0,0,0,59.9,68.2C57,65.26,52.58,63.31,48.7,61Z"/><path class="cls-2" d="M45.91,24.38l6.36-2s-1-3-8.17-3.4Z"/><path class="cls-2" d="M38.35,27.06l5.73-3.44s-1.66-2.72-8.73-1.42Z"/><path class="cls-2" d="M32.75,31.83l4.5-4.94S34.88,24.75,28.47,28Z"/><path class="cls-2" d="M28.58,37.76l3.69-5.56s-2.66-1.75-8.5,2.46Z"/><path class="cls-2" d="M26.15,45.31l2-6.39S25,38,20.66,43.73Z"/><path class="cls-2" d="M25.87,53V46.35s-3.18,0-5.71,6.75Z"/></g></g></svg>