<svg xmlns="http://www.w3.org/2000/svg" viewBox="0 0 46.1 38.27"><defs><style>.cls-1{fill:#7f3f98;}</style></defs><title>Asset 2</title><g id="Layer_2" data-name="Layer 2"><g id="Layer_1-2" data-name="Layer 1"><path class="cls-1" d="M38.33.28A11.53,11.53,0,0,0,36.58,0q-.42,0-.84,0c-.28,0-.57,0-.85,0a11.68,11.68,0,0,0-3.74,1.1,12.4,12.4,0,0,0-2.58,1.58,13.7,13.7,0,0,0-1.8,1.69,19.63,19.63,0,0,0-1.68,2.17c-.42.64-.86,1.28-1.23,2l-.56-1A19,19,0,0,0,21,4.12,10.44,10.44,0,0,0,18.34,2a9.27,9.27,0,0,0-1-.45c-.38-.16-.75-.32-1.13-.46A9.43,9.43,0,0,0,13.09.53H13a10.29,10.29,0,0,0-1.23.14c-.33,0-.66.1-1,.17s-.72.17-1.08.27A11.42,11.42,0,0,0,6.59,2.42a10.72,10.72,0,0,0-1.13.77c-.32.24-.67.48-1,.74A11.91,11.91,0,0,0,2.83,5.6a14.82,14.82,0,0,0-1.2,1.8,14.39,14.39,0,0,0-1,2.29A12.66,12.66,0,0,0,0,13.15a16.66,16.66,0,0,0,0,2.91A16.6,16.6,0,0,0,2,21.85a25.29,25.29,0,0,0,2.6,3.66,21.49,21.49,0,0,0,2,2.14c.16.15.35.29.52.43s.52.42.79.62c.46.33.92.66,1.39,1,.8.53,1.64,1,2.49,1.46,1.91,1,3.91,1.81,5.9,2.64.91.38,1.81.74,2.74,1.06s1.82.59,2.72.9l1.81.68,1.31.49a1.31,1.31,0,0,0,.39,1,1.36,1.36,0,0,0,1.91,0c.54-.54,1-1.14,1.54-1.73l1.51-1.74,3.09-3.55c2.11-2.44,4.22-4.9,6.16-7.49a39.93,39.93,0,0,0,2.66-4c.38-.68.7-1.39,1-2.09a22.55,22.55,0,0,0,1-2.34,11.18,11.18,0,0,0,.56-3.45,13.37,13.37,0,0,0-.4-3,12.55,12.55,0,0,0-1.19-3.14,10.07,10.07,0,0,0-1.94-2.55,16.7,16.7,0,0,0-1.51-1.25A7.36,7.36,0,0,0,38.33.28Zm4.14,7.56a13.39,13.39,0,0,1,.76,2.84c0,.34.07.68.08,1a7.83,7.83,0,0,1-.07,1.08,13.45,13.45,0,0,1-.89,3,29.69,29.69,0,0,1-1.78,3.57c-.67,1.08-1.41,2.11-2.17,3.12-1.9,2.37-3.89,4.67-5.9,6.94-1,1.1-1.94,2.22-2.9,3.33-.51.59-1,1.18-1.56,1.76-1-.52-2-.95-3-1.4s-2.18-.93-3.27-1.39c-.82-.35-1.63-.72-2.43-1.1-1-.46-2-.89-2.91-1.35s-2-1-3-1.56-1.79-1.12-2.66-1.74L10,25.26c-.4-.35-.78-.71-1.16-1.08a24.44,24.44,0,0,1-2-2.24c-.22-.28-.43-.57-.64-.85a15.71,15.71,0,0,1-1.44-2.48,16.48,16.48,0,0,1-.9-3.08,14.72,14.72,0,0,1,.06-3,11.77,11.77,0,0,1,.69-2.38,11.15,11.15,0,0,1,1-1.76,6.88,6.88,0,0,1,1-1L7,7A16.31,16.31,0,0,1,9.28,5.7,14.4,14.4,0,0,1,12,5.07a9.06,9.06,0,0,1,1.47,0,11.33,11.33,0,0,1,1.72.51,10.93,10.93,0,0,1,1.64.9,9.47,9.47,0,0,1,1.3,1.31A21.09,21.09,0,0,1,19.46,10c.5.91,1,1.83,1.46,2.77a2.25,2.25,0,0,0,2.73,1,1.42,1.42,0,0,0,.68,0,1.57,1.57,0,0,0,1-.75c.28-.57.56-1.14.83-1.71.2-.39.4-.79.63-1.17.54-.86,1.1-1.69,1.68-2.51.19-.24.38-.47.58-.69a14.82,14.82,0,0,1,1.57-1.5c.32-.23.64-.46,1-.67A13.88,13.88,0,0,1,32.91,4,11.53,11.53,0,0,1,35,3.34a11.89,11.89,0,0,1,2.31,0,7.37,7.37,0,0,1,1.31.32,8.19,8.19,0,0,1,1.13.7l.46.37a7.81,7.81,0,0,1,1.18,1.19A12.17,12.17,0,0,1,42.47,7.84Z"/><path class="cls-1" d="M38.94,7.49a4.11,4.11,0,0,0-.89-.38,5,5,0,0,0-.66-.18c-1-.18-1.94-.29-2.92-.4h-.06a1,1,0,0,0-.63.29,1,1,0,0,0-.28.69,1,1,0,0,0,.28.69l.2.15a1,1,0,0,0,.49.13l1.25.15a10,10,0,0,1,2.1.46,4.77,4.77,0,0,1,.62.36,6.06,6.06,0,0,1,.67.67,4.46,4.46,0,0,1,.47.82,6.4,6.4,0,0,1,.31,1.14,5.13,5.13,0,0,1,0,1c-.1.53-.27,1-.4,1.56a.7.7,0,1,0,1.35.37c.11-.38.23-.76.33-1.14a6.84,6.84,0,0,0,.21-1.28c0-.19,0-.37,0-.56a4.8,4.8,0,0,0-.09-.75,5.74,5.74,0,0,0-.29-1.1,5.56,5.56,0,0,0-1-1.69A4.25,4.25,0,0,0,38.94,7.49Z"/></g></g></svg>