<svg xmlns="http://www.w3.org/2000/svg" viewBox="0 0 168.87 86.29"><defs><style>.cls-1{fill:#fff;}</style></defs><title>Asset 1</title><g id="Layer_2" data-name="Layer 2"><g id="Layer_1-2" data-name="Layer 1"><path class="cls-1" d="M30.86,75.58c3-.81,6-1.56,9-2.24,5-1.11,10.07-2,15.15-2.8l3.33-.37C59.57,70,60.78,70,62,69.9c2.31-.17,4.63-.19,6.94-.25s4.56,0,6.83.06,4.35.28,6.51.51c3.47.52,7,1.06,10.41,1.67l3.09.54c1,.18,1.9.44,2.85.66a35,35,0,0,1,4.8,1.57c1.25.59,2.47,1.19,3.69,1.85s2.41,1.47,3.59,2.24a59,59,0,0,0,7.39,4.36,37.41,37.41,0,0,0,3.58,1.48,33.4,33.4,0,0,0,3.41.87,23.94,23.94,0,0,0,2.52.38c.69.08,1.38.17,2.07.22a51.12,51.12,0,0,0,8.66.08c1.13-.1,2.26-.3,3.38-.5a19.88,19.88,0,0,0,2.95-.84c.89-.31,1.77-.68,2.64-1,1.21-.5,2.4-1,3.56-1.64A2.27,2.27,0,0,0,152,80.31a1.16,1.16,0,0,0,.12-.34c.48-3.36.93-6.73,1.42-10.09L155,60.13c.23-1.53.45-3.06.69-4.59.27-1.71.5-3.44.81-5.14.34-1.91.69-3.8,1-5.71.3-1.61.68-3.21,1-4.82.61-2.89,1.28-5.78,1.87-8.68q.6-3,1.22-6.11c.3-1.49.55-3,.83-4.5.39-2.15.75-4.3,1.11-6.46.14-.88.28-1.77.4-2.65L164,11c1.14-.75,2.35-1.39,3.5-2.13a2.86,2.86,0,0,0,1-3.85,2.8,2.8,0,0,0-1.68-1.29,2.87,2.87,0,0,0-2.73.72q-.33.31-.69.6c-.9.63-1.85,1.16-2.76,1.76s-2.07,1.41-3.11,2.1-2.07,1.31-3.14,1.9-2,1-3,1.44a66.42,66.42,0,0,1-9.44,3c-3.31.78-6.66,1.42-10,1.92a45.88,45.88,0,0,1-5.62.27c-1.86,0-3.72-.2-5.58-.39-.81-.12-1.61-.25-2.42-.41-1-.2-2-.46-3.08-.72a42.18,42.18,0,0,1-5.34-1.86c-2.61-1.14-5.17-2.39-7.77-3.53C99,9.24,95.94,7.94,92.78,6.85Q90.32,6,87.85,5.22c-1.44-.46-2.91-.84-4.37-1.25s-2.66-.63-4-.93Q77,2.47,74.49,2A90.68,90.68,0,0,0,65.21.41L62.63.13C61.81,0,61,.06,60.13,0L58.4,0c-1,0-2,0-3,0A129.25,129.25,0,0,0,37,1.64c-3.54.55-7,1.23-10.56,1.94a2.73,2.73,0,0,0-.23-.45,1.31,1.31,0,0,0-2.41.32C23.51,4.3,23.28,5.17,23,6a1.1,1.1,0,0,0,0,.51l-.57,1.79c-.24.75-.51,1.49-.77,2.23-.78,2.27-1.54,4.55-2.35,6.81-1.4,3.9-2.78,7.8-4.2,11.7q-2.47,6.78-4.86,13.59c-1.38,4-2.62,8-3.84,12-1.07,3.48-2.14,7-3.09,10.49-.47,1.77-.95,3.54-1.41,5.31-.24.92-.5,1.83-.71,2.76a19.32,19.32,0,0,0-.48,2.63,4.67,4.67,0,0,0,.11,1L.89,77a2.71,2.71,0,0,0,.69,1.18,2.85,2.85,0,0,0,2.17.92l-1.7.68A3,3,0,0,0,.38,81.06a2.78,2.78,0,0,0,1,3.81,2.71,2.71,0,0,0,2.15.29c6.28-2.53,12.58-5,19-7.08C25.32,77.21,28.07,76.32,30.86,75.58ZM5.74,78.3a2.61,2.61,0,0,0,.65-1.13,2.64,2.64,0,0,0-.26-2l0,0c0-.4.08-.81.12-1.2s.06-.54.09-.81C7,69,7.88,64.93,8.92,60.89c1.13-4.37,2.35-8.72,3.62-13.06,2.44-8.31,5.34-16.48,8.14-24.68,1-2.83,1.93-5.66,2.86-8.5l1.74-5.32c.08-.25.15-.51.22-.77a2.82,2.82,0,0,0,1,0C29.26,8,32,7.45,34.78,6.92c1.7-.32,3.42-.54,5.14-.8s3.58-.42,5.38-.55c2-.14,3.94-.21,5.91-.28s3.67,0,5.51,0c.84,0,1.7,0,2.55.06l3.31.24c1,.13,2,.25,3,.44,1.43.28,2.86.54,4.28.86,2.86.65,5.71,1.37,8.55,2.1,2.61.66,5.22,1.38,7.76,2.26,2.78.95,5.53,2,8.27,3s5.19,2.29,7.76,3.49a94.8,94.8,0,0,0,9.15,3.8c1.35.47,2.75.79,4.14,1.13.68.16,1.39.25,2.08.38.94.18,1.93.31,2.88.4a53.3,53.3,0,0,0,9,.24,68.26,68.26,0,0,0,9.84-1.54A78.56,78.56,0,0,0,147.76,20a57.24,57.24,0,0,0,8.18-3.48,29.6,29.6,0,0,0,3.84-2.34c.37-.27.74-.56,1.11-.84-.27,1.32-.54,2.63-.82,3.94-.73,3.31-1.45,6.61-2.22,9.91s-1.61,6.68-2.44,10c-.42,1.67-.8,3.34-1.2,5-.35,1.44-.64,2.88-1,4.33-.63,3.06-1.21,6.13-1.72,9.21q-.85,5.19-1.7,10.39c-.35,2.09-.68,4.18-1,6.28-.3,1.92-.6,3.83-.82,5.76-1.15.38-2.29.77-3.42,1.18a23.23,23.23,0,0,1-4,1.13,29.56,29.56,0,0,1-5.24.09q-3-.21-5.93-.53a33.57,33.57,0,0,1-7.25-1.79c-1.2-.55-2.41-1.12-3.56-1.78s-2.53-1.46-3.77-2.25-2.5-1.6-3.79-2.34-2.57-1.38-3.9-2a33.77,33.77,0,0,0-4.41-1.71l-2.34-.65c-.85-.24-1.73-.38-2.59-.56-1.26-.27-2.55-.45-3.82-.65l-4.44-.65c-1.61-.25-3.21-.49-4.81-.71s-3.42-.43-5.14-.6c-1.28-.13-2.57-.2-3.86-.22s-2.76-.07-4.14-.07h-.21c-3,0-6,.11-9,.25-1.32.06-2.66.15-4,.3-1.65.18-3.3.34-4.94.59-3.14.49-6.26,1-9.38,1.63-2.67.5-5.35,1-8,1.68-2.93.72-5.86,1.46-8.76,2.3s-5.9,1.8-8.83,2.76C14.17,75,10,76.63,5.74,78.3Z"/><path class="cls-1" d="M29.25,56.72a8.42,8.42,0,0,0,1-1.32,7.51,7.51,0,0,0,1.2-2.66,5.6,5.6,0,0,0,.09-.8,4.33,4.33,0,0,0-.14-1,4.61,4.61,0,0,0-.76-1.67,2.19,2.19,0,0,0-1.25-1,2.11,2.11,0,0,0-1.54.16l-.15-.1a1.65,1.65,0,0,0-.84-.22,2.12,2.12,0,0,0-.44,0,1.87,1.87,0,0,0-1,.77c-.71.95-1.47,1.89-2.1,2.9a4.9,4.9,0,0,0-.59,1.37,4,4,0,0,0,.1,1.82A5,5,0,0,0,25,57.81a2.75,2.75,0,0,0,1.57.32,3.79,3.79,0,0,0,1.54-.47A4.29,4.29,0,0,0,29.25,56.72ZM26,54.09v0h0Zm0,0h0l0,.16Zm.54.77,0,0,0,0Zm.1-.06.1-.08h0Zm.1-.08h0l0,0Zm.58-.94a7.74,7.74,0,0,1-.43.73l-.32.32a3.69,3.69,0,0,1-.38-.41,2,2,0,0,1-.12-.19c0-.1-.06-.19-.08-.28v0a14.11,14.11,0,0,1,1.11-1.66l.26-.35c.05.1.11.2.16.31l.09.31v.27A8.78,8.78,0,0,1,27.3,53.81Z"/><path class="cls-1" d="M132.91,40.31a1.68,1.68,0,0,0,1.09-.46c1-.8,2-1.6,3-2.39.65.73,1.29,1.47,1.95,2.18a2.2,2.2,0,0,0,3.75-1.55,2.33,2.33,0,0,0-.65-1.55l-1.54-1.8c1.36-1,2.72-2,4.1-3a1.7,1.7,0,0,0,.73-.94,1.63,1.63,0,0,0-.16-1.22,1.69,1.69,0,0,0-1.41-.79,1.3,1.3,0,0,0-.75.23c-1.53,1.07-3.05,2.18-4.55,3.3l-2.34-2.74a2,2,0,0,0-1.53-.65,2.41,2.41,0,0,0-1.66.65,2.31,2.31,0,0,0-.66,1.59,2.43,2.43,0,0,0,.66,1.6l2,2.29c-1.06.84-2.11,1.7-3.14,2.57a1.55,1.55,0,0,0,0,2.19A1.57,1.57,0,0,0,132.91,40.31Z"/><path class="cls-1" d="M37.78,56.29c1.08-.6,2.16-1.23,3.25-1.82A1.35,1.35,0,0,0,40.7,52a1.24,1.24,0,0,0-.33,0,1.7,1.7,0,0,0-.71.18c-1.14.49-2.24,1.07-3.33,1.67a1.44,1.44,0,0,0-.52,2A1.47,1.47,0,0,0,37.78,56.29Z"/><path class="cls-1" d="M51.15,51.18l6.27-1.37a1,1,0,0,0,.65-1.15.92.92,0,0,0-.92-.68.91.91,0,0,0-.23,0l-6.28,1.33a1,1,0,0,0,.51,1.84Z"/><path class="cls-1" d="M67,47.61l4.27,1.2a.86.86,0,0,0,.45-1.65c-1.41-.45-2.82-.87-4.24-1.28a1,1,0,0,0-.24,0,.92.92,0,0,0-.87.66A.91.91,0,0,0,67,47.61Z"/><path class="cls-1" d="M80.36,49.05c2.14.76,4.27,1.51,6.46,2.13a1.25,1.25,0,0,0,.66-2.41c-2.17-.67-4.3-1.44-6.44-2.2a1,1,0,0,0-.35-.06,1.34,1.34,0,0,0-1.23,1,1.27,1.27,0,0,0,.13,1A1.38,1.38,0,0,0,80.36,49.05Z"/><path class="cls-1" d="M98.32,52.09a1.75,1.75,0,0,0,1.21.16c1.1-.16,2.22-.29,3.31-.51.48-.1,1-.17,1.44-.29.69-.19,1.36-.38,2-.61a1.39,1.39,0,0,0,1-1.68,1.44,1.44,0,0,0-.63-.82,1.29,1.29,0,0,0-.68-.18,2.58,2.58,0,0,0-.38,0c-.69.14-1.38.25-2.08.36-1.61.2-3.21.43-4.82.66a1.46,1.46,0,0,0-.93.72,1.51,1.51,0,0,0-.16,1.21A1.61,1.61,0,0,0,98.32,52.09Z"/><path class="cls-1" d="M114.84,48.24c1-.3,2-.58,2.92-.9.42-.14.86-.27,1.28-.43.61-.23,1.21-.46,1.81-.71a.88.88,0,0,0,.43-.33.72.72,0,0,0-.62-1.08l-.19,0c-1,.38-2.07.71-3.12,1l-2.93.88a.79.79,0,0,0-.55,1A.8.8,0,0,0,114.84,48.24Z"/><circle class="cls-1" cx="128.02" cy="43.62" r="1.93"/></g></g></svg>