<svg xmlns="http://www.w3.org/2000/svg" viewBox="0 0 47.36 53.83"><defs><style>.cls-1{fill:#fff;}</style></defs><title>Asset 3</title><g id="Layer_2" data-name="Layer 2"><g id="Layer_1-2" data-name="Layer 1"><path class="cls-1" d="M46.68,16.35c0-.66,0-1.32,0-2l0-3.9c0-2,.06-4,.11-6a1.54,1.54,0,0,0,.42-1,1.5,1.5,0,0,0-.37-1c0-.18,0-.36,0-.53a1.91,1.91,0,0,0-3.82-.12l-2.84,0H33.79A1.6,1.6,0,0,0,32.2,3.37a1.58,1.58,0,0,0,.7,1.31L31.25,5.82,26.68,9q-4.26,3-8.57,5.86a1,1,0,0,0-.42.56.89.89,0,0,0,.09.71.93.93,0,0,0,1.27.34c3.56-2.42,7.11-4.83,10.63-7.29l3.55-2.5L35,5.42,35.59,5H43c0,1.83-.08,3.66-.1,5.5,0,1.3,0,2.6,0,3.9,0,.71,0,1.41,0,2.12a14.48,14.48,0,0,0,.28,2.36c-1.4,1.77-2.79,3.53-4.17,5.31-1.73,2.22-3.46,4.44-5.15,6.69L32.25,33c-.2.27-.38.55-.57.82a1.54,1.54,0,0,0-1.48-1l-3.6-.27h0a1.57,1.57,0,0,0-1.48-1.13,1.39,1.39,0,0,0-.4.06,1.54,1.54,0,0,0-1.08,1.88c.21.67.41,1.34.65,2,.31.83.64,1.64,1,2.44a1.41,1.41,0,0,0,.5.5l.23.11q-2.39,3-4.73,5.95a1.51,1.51,0,0,0-.85-.54c-2.65-.41-5.32-.72-8-1,2.58-2.64,5.1-5.34,7.64-8,2.11-2.24,4.22-4.49,6.38-6.7a1.28,1.28,0,0,0,0-1.79,1.26,1.26,0,0,0-.9-.37,1.27,1.27,0,0,0-.9.37c-1.5,1.48-2.88,3.09-4.29,4.66l-4.75,5.28c-1.39,1.54-2.8,3-4.21,4.58-.14.16-.29.31-.43.46,0-2.43-.06-4.86-.11-7.29,0-1.31,0-2.61-.1-3.92,0-.6-.07-1.2-.11-1.8,0-.27-.05-.53-.08-.8a7.58,7.58,0,0,0-.13-.81l0-.1,1.34-1.62.8-1,.12-.14.12.29c.14.34.29.66.46,1A4.22,4.22,0,0,0,14,26a1.47,1.47,0,0,0,2,0,1.42,1.42,0,0,0,.26-.38,1.12,1.12,0,0,0,.44.09,1.15,1.15,0,0,0,.81-.34,1.26,1.26,0,0,0,.34-.81c.13-1.25.26-2.49.38-3.74s.2-2.27.32-3.41a.94.94,0,0,0-.14-.51,1,1,0,0,0-.6-.47,1.24,1.24,0,0,0-.27,0,1,1,0,0,0-1,.74c-.1.36-.19.71-.28,1.08s-.08.55-.13.82c-.08.56-.13,1.12-.19,1.68-.09.92-.18,1.83-.28,2.74-.26-.4-.52-.81-.75-1.24l-.3-.53a2.07,2.07,0,0,0-.15-.25,2.28,2.28,0,0,0-.63-.68,1.35,1.35,0,0,0-.8-.25,1.76,1.76,0,0,0-.85.22,3.32,3.32,0,0,0-.81.82c-.49.6-.95,1.21-1.42,1.81-.61.76-1.23,1.5-1.85,2.25a1.63,1.63,0,0,0-.6.83,5.19,5.19,0,0,0-.21,1.24c0,.27,0,.54,0,.81,0,.61,0,1.21,0,1.81,0,1.25,0,2.51,0,3.76,0,2.87.08,5.74.11,8.61a1.86,1.86,0,0,0,.82,1.51c-.28.3-.56.6-.85.89L4.2,48.32,2.38,50.24,1.66,51c-.17.17-.33.35-.49.53L.71,52l-.24.23a2.91,2.91,0,0,0-.24.27l.05-.07-.06.08A.75.75,0,0,0,1,53.8a2,2,0,0,0,.37-.15,3.57,3.57,0,0,0,.43-.34c.26-.22.5-.46.74-.69l.58-.55,1.52-1.49,2-1.94c.77-.76,1.55-1.51,2.31-2.28l1-1a2.27,2.27,0,0,0,.29.4l.37.28a1.74,1.74,0,0,0,.92.25c2.83.31,5.67.63,8.52.79a1.59,1.59,0,0,0,1.38-.73,1.19,1.19,0,0,0,.55.15,1.11,1.11,0,0,0,.81-.34c2-2.41,3.91-4.83,5.86-7.25a1.32,1.32,0,0,0,.35-.84,1.18,1.18,0,0,0-.35-.83,1.21,1.21,0,0,0-.73-.34,1.55,1.55,0,0,0,0-.21c-.08-.31-.17-.62-.26-.93l2.64.2a1.26,1.26,0,0,0,.38,0,1.14,1.14,0,0,0,.34.87,1.18,1.18,0,0,0,1.67,0,17.44,17.44,0,0,0,1.2-1.38L35,33.84c.61-.8,1.21-1.6,1.83-2.4,3-3.82,5.91-7.64,8.93-11.41a1.28,1.28,0,0,0,.35-.26,1.63,1.63,0,0,0,.41-.69l.45-.56a1.47,1.47,0,0,0,.4-1,1.39,1.39,0,0,0-.4-1A1.86,1.86,0,0,0,46.68,16.35Z"/><path class="cls-1" d="M23.8,18.37a.94.94,0,0,0,.75-.1c3.67-2.7,7.36-5.39,11-8.13a1.07,1.07,0,0,0,.46-.6,1,1,0,0,0-.1-.77,1,1,0,0,0-.6-.46,1.26,1.26,0,0,0-.28,0,.81.81,0,0,0-.49.14c-1,.72-1.9,1.45-2.84,2.17s-1.62,1.21-2.42,1.81c-1.9,1.42-3.81,2.81-5.71,4.21a1.06,1.06,0,0,0-.44.58,1,1,0,0,0,.09.75A1,1,0,0,0,23.8,18.37Z"/></g></g></svg>