<svg xmlns="http://www.w3.org/2000/svg" viewBox="0 0 39.27 51.68"><defs><style>.cls-1{fill:#fff;}</style></defs><title>Asset 1</title><g id="Layer_2" data-name="Layer 2"><g id="Layer_1-2" data-name="Layer 1"><path class="cls-1" d="M1.37,51.68c1.79-.08,3.59-.18,5.38-.29,1.52-.1,3-.26,4.54-.4,3.18-.3,6.35-.61,9.53-.84,5.15-.39,10.3-.83,15.46-1a.85.85,0,0,0,.23,0,.9.9,0,0,0,.58.23.86.86,0,0,0,.61-.25,1,1,0,0,0,.25-.62c.09-.68.16-1.36.22-2s.06-1.18.07-1.77,0-1,0-1.53,0-1.15,0-1.72c0-1.11.09-2.22.16-3.33s.12-2.19.17-3.28.09-2.18.1-3.26,0-2.35,0-3.52c0-2.18-.14-4.36-.09-6.54,0-1.9.1-3.79.22-5.68.14-2.13.34-4.25.56-6.37a1.07,1.07,0,0,0-.34-.81,1.13,1.13,0,0,0-.81-.34,1.15,1.15,0,0,0-.82.34l0,0A.89.89,0,0,0,37,7.8C36,6.93,35.12,6,34.2,5.1L31.87,2.82a.78.78,0,0,0-.21-.47.87.87,0,0,0-.49-.22,1.17,1.17,0,0,0-.78-.31,1.08,1.08,0,0,0-.55.15c-.82-.09-1.65-.17-2.47-.22-1.12-.07-2.24-.12-3.35-.14s-2,0-3,0c-1.33,0-2.65,0-4,0-.53,0-1.06,0-1.59-.06l-1.9-.16c-1-.08-1.94-.17-2.91-.28S8.4.83,7.29.68L3.87.24,4,.26l-.18,0-.19,0,.16,0L2.53.05,2.16,0a1.32,1.32,0,0,0-.7.19A1.39,1.39,0,0,0,1,2.09a1.31,1.31,0,0,0,.83.64C3.53,3,5.27,3.2,7,3.43c1.17.15,2.34.25,3.5.37l1.32.11C12.41,4,13,4,13.57,4l1.94.1c.23,0,.47,0,.7,0h1.26c1,0,2,0,3-.08C21.73,4,23,4,24.19,3.9s2.18-.08,3.28-.12l.92,0a.63.63,0,0,0-.13.2c-.13.31-.27.62-.4.94v0l-.08.2-.05.12Q26.66,7.72,25.6,10.3a1.42,1.42,0,0,0,0,.71,1.39,1.39,0,0,0,.49.72s0,.09,0,.14A1.14,1.14,0,0,0,27.21,13c.89-.05,1.78-.13,2.66-.2.67-.06,1.33-.15,2-.23,1.43-.17,2.85-.39,4.26-.7a1,1,0,0,0,.63-.48c-.18,1.78-.33,3.56-.4,5.35-.09,2.23-.13,4.48-.14,6.72s0,4.54,0,6.81S36.08,34.77,36,37c0,1.83,0,3.66.11,5.49,0,.42.06.85.09,1.28s0,1,.05,1.54v.72c-3.28.24-6.55.52-9.83.78q-4.69.38-9.38.79c-2.48.22-5,.51-7.44.74-1.34.13-2.69.25-4,.34l-.19,0c0-1,.07-2,.08-3.06,0-1.18,0-2.37,0-3.55,0-2.56,0-5.12-.08-7.67C5.34,29.73,5.1,25,4.73,20.32c-.12-1.5-.24-3-.34-4.51,0-.64-.09-1.29-.13-1.94l0-.29c0-.85.1-1.71.16-2.56.07-1.12.14-2.24.2-3.36l0,0a1.42,1.42,0,0,0,.43-1,14.42,14.42,0,0,0-.25-2.17,1.46,1.46,0,0,0-1-1,1.28,1.28,0,0,0-.38,0,1.31,1.31,0,0,0-.39,0,1.42,1.42,0,0,0-.64.37c-.62.52-.57,1.36-.62,2.09,0,.36-.05.72-.07,1.08-.05.77-.1,1.54-.16,2.31-.11,1.49-.22,3-.31,4.48-.11,1.65-.2,3.3-.28,5-.07,1.5-.08,3-.1,4.5,0,2.09.08,4.18.23,6.26a1.31,1.31,0,0,0,.37.9,1.25,1.25,0,0,0,1.44.24c.12,3.53.21,7,.25,10.58,0,2.56,0,5.11.15,7.66L1.37,49a1.37,1.37,0,1,0,0,2.73Zm35-41.77a1,1,0,0,0-.52-.13,1.53,1.53,0,0,0-.3,0c-.7.12-1.41.22-2.11.32l-3,.35c-.71.08-1.43.14-2.15.19.78-1.77,1.53-3.56,2.29-5.34,0-.11.09-.22.14-.33l0-.17c.6.58,1.2,1.16,1.81,1.73,1,.9,2,1.8,3,2.61a1,1,0,0,0,.69.29A1,1,0,0,0,37,9.17a.91.91,0,0,0,0,.23c0,.36-.08.72-.11,1.08A1.14,1.14,0,0,0,36.38,9.91Z"/><path class="cls-1" d="M3.87.24h0Z"/><path class="cls-1" d="M27.74,5.18h0v0Z"/><path class="cls-1" d="M27.86,4.88c0,.08-.07.18-.11.27l0-.1Z"/><path class="cls-1" d="M12,22.4a.83.83,0,0,0,.82.82q6.23-.24,12.46-.46l3.38-.1c1.29,0,2.57-.09,3.85-.05a.73.73,0,0,0,.72-.72.71.71,0,0,0-.21-.5.74.74,0,0,0-.51-.21,23,23,0,0,0-2.49-.1h-.31l-2.17,0-5.6.14c-3,.09-6.08.22-9.12.34A.82.82,0,0,0,12,22.4Z"/><path class="cls-1" d="M11.67,30.64l11.44-.15,4.42-.06,2.42,0h1.88l.92,0a1.29,1.29,0,0,0,.48.1,1.31,1.31,0,0,0,1.12-.64.25.25,0,0,1,0-.07,1.36,1.36,0,0,0-.21-1.62,2.15,2.15,0,0,0-1.25-.61,8.7,8.7,0,0,0-1.35-.14l-1.33-.05c-.76,0-1.52,0-2.28,0h-.75l-3.93,0c-3.88,0-7.75.09-11.62.14a1.56,1.56,0,1,0,0,3.12Z"/><path class="cls-1" d="M29.3,35.33c-.92,0-1.85,0-2.78.05L23,35.45c-2.25,0-4.49.07-6.74.08H12.16a1.06,1.06,0,1,0,0,2.12c2.61,0,5.23,0,7.84,0,2.43,0,4.85-.08,7.28-.14l2.94-.11a1,1,0,1,0,0-2Z"/><path class="cls-1" d="M20.52,13A10.19,10.19,0,0,0,19.28,13a25.61,25.61,0,0,0-2.77.2l-4.9.57-.34,0a1.26,1.26,0,0,0-.57.33,1.3,1.3,0,0,0,0,1.82,1.25,1.25,0,0,0,.91.38c1.62-.2,3.23-.39,4.84-.6a39.8,39.8,0,0,1,4.07-.42,1.12,1.12,0,0,0,.8-1.92A1.25,1.25,0,0,0,20.52,13Z"/></g></g></svg>